PathFileType	4	(X/Y/Z)	./resultDataOpenSim/trcMotMarkerGrf/sub10/qtm-02-06.trc
DataRate	CameraRate	NumFrames	NumMarkers	Units	OrigDataRate	OrigDataStartFrame	OrigNumFrames
250.000000	250.000000	13	24	m	250.000000	342	546
Frame#	Time	L.Toe.Tip			R.Toe.Tip			L.Ankle.Lat			R.Ankle.Lat			L.Ankle.Med			R.Ankle.Med			L.Heel			R.Heel			L.Knee.Lat			R.Knee.Lat			L.Knee.Med			R.Knee.Med			L.Thigh.Upper			R.Thigh.Upper			L.ASIS			R.ASIS			V.Sacral			L.Acromium			R.Acromium			C7			L.Elbow			R.Elbow			L.Wrist.Lat			R.Wrist.Lat
		X1	Y1	Z1	X2	Y2	Z2	X3	Y3	Z3	X4	Y4	Z4	X5	Y5	Z5	X6	Y6	Z6	X7	Y7	Z7	X8	Y8	Z8	X9	Y9	Z9	X10	Y10	Z10	X11	Y11	Z11	X12	Y12	Z12	X13	Y13	Z13	X14	Y14	Z14	X15	Y15	Z15	X16	Y16	Z16	X17	Y17	Z17	X18	Y18	Z18	X19	Y19	Z19	X20	Y20	Z20	X21	Y21	Z21	X22	Y22	Z22	X23	Y23	Z23	X24	Y24	Z24

342	1.364	0.038712581	0.018780039	-0.053663402	0.7581177	0.043499037	0.15112576	-0.041027654	0.1248587	-0.083150434	0.62015436	0.054707397	0.19839338	-0.015791274	0.13192354	-0.0013784571	0.63411104	0.081032517	0.11291434	-0.10565029	0.14192511	-0.036963824	0.56784102	0.028684911	0.1567647	0.22842767	0.40406494	-0.10267613	0.59027909	0.45743022	0.19885092	0.23385175	0.37080183	0.014656765	0.59474024	0.45996968	0.067900512	0.31438679	0.7794116	-0.13644103	0.4237523	0.83294951	0.23700455	0.39540862	0.88771958	-0.092568047	0.45928748	0.92140169	0.1438382	0.22508122	0.90609035	0.092239488	0.36753337	1.3639178	-0.11812557	0.33578657	1.3567228	0.20741548	0.26798781	1.3910075	0.031546872	0.36928478	1.0130286	-0.17951553	0.1756557	1.0524842	0.2242554	0.58987376	0.91316656	-0.14027133	0.19957472	0.82931469	0.32024109
343	1.368	0.040098693	0.018641141	-0.053541993	0.7591421	0.042751685	0.1515734	-0.035264835	0.12812252	-0.082614725	0.62087514	0.054637687	0.19819795	-0.008798251	0.13396466	-0.001335985	0.63500975	0.080669745	0.11267574	-0.098470574	0.14695027	-0.035382691	0.568246	0.028925847	0.15667039	0.23783957	0.4037447	-0.1027404	0.59464256	0.45715091	0.19936768	0.243822	0.36983466	0.014325672	0.59912325	0.46060695	0.068380746	0.32132104	0.77900837	-0.13507391	0.42982675	0.83457742	0.23822429	0.4023951	0.88782088	-0.090870874	0.46539774	0.92266623	0.14511259	0.23138926	0.90687331	0.092642075	0.37344026	1.3645601	-0.11694159	0.34160219	1.3574004	0.20839083	0.27374563	1.3914805	0.032526768	0.37100919	1.0139661	-0.17660746	0.18211583	1.0528944	0.22521687	0.59401216	0.91268754	-0.13895832	0.20642506	0.82971889	0.32118495
344	1.372	0.041519182	0.018459315	-0.053490542	0.7599435	0.042091277	0.15196563	-0.029205609	0.13131454	-0.082022533	0.6214132	0.054606534	0.19803804	-0.0014961043	0.13585632	-0.0012860541	0.63573111	0.080304218	0.11247026	-0.090931825	0.15193978	-0.0337141	0.56859779	0.029113494	0.15659474	0.24740997	0.40341812	-0.10286149	0.59880785	0.45677443	0.19983514	0.25432305	0.36881715	0.013747526	0.60335137	0.46102744	0.068861625	0.32826637	0.77859802	-0.13367973	0.43586949	0.83615425	0.23946278	0.40927466	0.88787407	-0.089237213	0.47146028	0.92392425	0.14636893	0.23799194	0.90757067	0.092896533	0.37928897	1.3651994	-0.11575804	0.3474187	1.3580679	0.20935934	0.27946139	1.3919275	0.033508903	0.37149271	1.0150906	-0.17297109	0.18862424	1.0532439	0.22621646	0.59807774	0.9121675	-0.13771069	0.21338871	0.83010829	0.32215622
345	1.376	0.042990389	0.018298218	-0.05345266	0.76056353	0.041538583	0.15209757	-0.02290466	0.13443568	-0.08139884	0.62182087	0.054600571	0.19791512	0.0060429148	0.13763304	-0.0012370728	0.63621141	0.079948902	0.11233368	-0.083077972	0.15691055	-0.032051291	0.56889676	0.029250389	0.15657259	0.25708739	0.40309179	-0.10302079	0.60278556	0.45632346	0.20026543	0.26510103	0.36768667	0.013055668	0.60743547	0.46124152	0.069307123	0.33526151	0.77816949	-0.13230377	0.44188443	0.83767721	0.24072052	0.41599578	0.88785688	-0.087703041	0.47747138	0.92517247	0.14760523	0.24461565	0.9083176	0.09317742	0.38508496	1.3658329	-0.11457516	0.35319988	1.3587302	0.21031281	0.28514031	1.3923546	0.034492503	0.37204144	1.0162106	-0.16944444	0.19516089	1.0535598	0.22725393	0.60208179	0.91161284	-0.13652655	0.2204682	0.83048742	0.3231588
346	1.38	0.0445667	0.018276868	-0.053361682	0.76106133	0.041096377	0.15191417	-0.016390786	0.13749429	-0.080787423	0.62216905	0.054602433	0.19781879	0.013731156	0.13935643	-0.0012022585	0.63643764	0.079619387	0.11227441	-0.074969913	0.16187256	-0.030498428	0.56914002	0.029343627	0.15660985	0.26683463	0.40276653	-0.10319626	0.60658105	0.45582111	0.20067448	0.27586134	0.36637709	0.012417788	0.61134082	0.46126276	0.069729723	0.34230065	0.77771095	-0.13095674	0.44787266	0.83914413	0.24199981	0.42248893	0.88773961	-0.086323791	0.48342542	0.92640627	0.14882971	0.25129343	0.90914314	0.093475078	0.39083291	1.3664608	-0.11339741	0.35891501	1.3593989	0.21126064	0.29078838	1.392772	0.035479995	0.37305507	1.0172629	-0.16625092	0.20169391	1.0538782	0.22832759	0.60603001	0.91102753	-0.13539993	0.22765723	0.83085695	0.32418632
347	1.384	0.046319151	0.018531454	-0.053172622	0.76146926	0.040741764	0.1515439	-0.0096599495	0.1405096	-0.08024354	0.6225273	0.054588682	0.19772371	0.021484543	0.1410897	-0.0011941332	0.63649951	0.079331995	0.11224847	-0.066680521	0.16682744	-0.029129643	0.56932706	0.029404102	0.15668602	0.27663187	0.40243853	-0.10337011	0.61019518	0.45530951	0.20106572	0.28648759	0.3648994	0.011894322	0.61494697	0.4610938	0.070227569	0.34936101	0.77720977	-0.12962988	0.45382798	0.84055847	0.24329674	0.42871859	0.8875041	-0.085132771	0.48932517	0.92761679	0.1500584	0.25813792	0.91006832	0.093725316	0.39652993	1.3670846	-0.11223804	0.36456825	1.3600727	0.21220638	0.29641085	1.3931825	0.036473528	0.37436722	1.018269	-0.16326065	0.20819799	1.0542167	0.22943204	0.60991947	0.91041149	-0.13432478	0.23494797	0.83121465	0.3252321
348	1.388	0.048296456	0.019145794	-0.052869092	0.76180217	0.04044562	0.15118723	-0.002716382	0.1435059	-0.079789759	0.622924	0.054542846	0.19760685	0.029252535	0.14288066	-0.0012004799	0.63653358	0.079094129	0.11219648	-0.058267926	0.17177967	-0.027951173	0.56946262	0.029443765	0.15676721	0.28647319	0.40210314	-0.10353162	0.6136159	0.45484677	0.20142236	0.297058	0.36332071	0.011449979	0.61809258	0.46072911	0.070947486	0.35642345	0.7766521	-0.12831297	0.45974244	0.8419297	0.24460311	0.43477146	0.88718621	-0.084060089	0.49518067	0.9287925	0.15129881	0.26503846	0.91114287	0.093973185	0.40216735	1.3677052	-0.11111248	0.37018691	1.3607353	0.21313649	0.30201011	1.3935844	0.037473255	0.37575449	1.0192564	-0.1603364	0.21467438	1.0545549	0.23055865	0.61375127	0.90976361	-0.13329476	0.24233914	0.83155732	0.32629767
349	1.392	0.050508929	0.020117356	-0.052468829	0.76207559	0.040188856	0.15096733	0.0044078539	0.14651368	-0.079385832	0.62332323	0.054470782	0.19746942	0.03703799	0.14476105	-0.001167845	0.63661562	0.078895701	0.11210224	-0.049745919	0.17674262	-0.026911357	0.56955459	0.029469697	0.15682652	0.29635059	0.40175716	-0.10367342	0.61681227	0.45448093	0.20171322	0.30778096	0.36169717	0.011042124	0.62073832	0.46019618	0.071920938	0.36347526	0.77602515	-0.12700246	0.46561118	0.84326486	0.24591476	0.44082519	0.88686762	-0.082954453	0.50099596	0.92992247	0.15254228	0.2715537	0.91235086	0.094390651	0.40773851	1.3683218	-0.11002975	0.37578999	1.3613752	0.21404314	0.30758018	1.3939822	0.038474471	0.37708382	1.0202371	-0.15741214	0.22115667	1.0548445	0.23169979	0.61753661	0.90908552	-0.13230648	0.24983381	0.83188016	0.32738766
350	1.396	0.052949642	0.021382696	-0.052017439	0.76230049	0.039966594	0.15087527	0.011718133	0.14957454	-0.078983016	0.62366016	0.054388599	0.19733279	0.044881825	0.14674661	-0.0010344512	0.63673606	0.07872114	0.11199109	-0.041064719	0.18173663	-0.025943485	0.56961417	0.029479846	0.15685546	0.30623768	0.40140069	-0.10378891	0.61978728	0.4542259	0.20192382	0.31898129	0.36005015	0.01065747	0.62307468	0.45958739	0.072945611	0.37051125	0.77532048	-0.12569907	0.47143191	0.84456688	0.24723097	0.44701841	0.88662653	-0.081692836	0.50676759	0.93099836	0.15377032	0.27726386	0.91345417	0.095018177	0.41324782	1.3689339	-0.10899019	0.38137223	1.361995	0.21493708	0.31310356	1.3943839	0.039466185	0.37829881	1.0212223	-0.15443564	0.22769151	1.0550493	0.23285467	0.62128452	0.90837929	-0.13136525	0.25743213	0.83217952	0.32850259
351	1.4	0.055616475	0.02286596	-0.051552995	0.76247698	0.039781213	0.15082588	0.019278823	0.15273128	-0.078586254	0.62389098	0.054302366	0.19721987	0.052819091	0.14883715	-0.00077925002	0.63684735	0.07856823	0.11189121	-0.032123657	0.18678087	-0.024988903	0.56965698	0.02946789	0.15685584	0.31609455	0.40103918	-0.10387177	0.62264861	0.45406013	0.20208781	0.33088813	0.35836743	0.010318313	0.62536217	0.45901347	0.073754139	0.37753426	0.77453802	-0.12440346	0.47721085	0.84584258	0.24854966	0.45338391	0.88651079	-0.080237417	0.51249806	0.93201615	0.15496912	0.28227333	0.91395943	0.095492913	0.41871443	1.3695421	-0.1079863	0.38692105	1.3626063	0.21583038	0.31856589	1.3947944	0.040439467	0.37943228	1.0222457	-0.15130176	0.23429557	1.0551759	0.23403424	0.62499165	0.90764162	-0.13047904	0.2651291	0.83245672	0.32964095
352	1.404	0.058510058	0.024511304	-0.051090065	0.76260528	0.039632935	0.15075049	0.027099732	0.15601134	-0.078191171	0.62401315	0.054211525	0.19714417	0.060856314	0.15102594	-0.0004179159	0.63691002	0.078446272	0.11181627	-0.02282014	0.1918813	-0.024017599	0.56969628	0.029435679	0.15683398	0.3258937	0.40068185	-0.10391734	0.62554345	0.45394897	0.20226312	0.3432353	0.35662942	0.010066858	0.62768836	0.45852883	0.074273815	0.38454497	0.77369033	-0.12311745	0.48296183	0.84710111	0.24986303	0.45984658	0.88651852	-0.078645529	0.51819841	0.93297554	0.15613485	0.2873569	0.91346266	0.095245023	0.42415474	1.3701509	-0.10701488	0.39244035	1.3632203	0.21672205	0.32397165	1.3952176	0.041393967	0.38071225	1.0233665	-0.14789115	0.24092777	1.0552641	0.23525607	0.62864603	0.90686581	-0.12964958	0.27291774	0.83271512	0.33080139
353	1.408	0.061639838	0.026292823	-0.050649284	0.76269632	0.039516924	0.15064697	0.035073717	0.15941216	-0.077707066	0.624064	0.054123693	0.19710611	0.068991314	0.15330605	2.972463e-05	0.63691887	0.078360776	0.11177001	-0.013104603	0.19701392	-0.023049632	0.56973234	0.029398942	0.15680908	0.33564397	0.40034132	-0.10392989	0.6285204	0.45387535	0.20247693	0.35535455	0.35489881	0.009903571	0.62997041	0.4581278	0.074620201	0.39153141	0.77280134	-0.12184712	0.4886801	0.84833643	0.25115065	0.46625741	0.88658853	-0.077053327	0.52387421	0.93387546	0.15726273	0.29354625	0.91235058	0.094259841	0.42956337	1.3707692	-0.10609089	0.3979453	1.3638396	0.21759859	0.3293339	1.3956617	0.042330868	0.38264631	1.0246038	-0.14432923	0.24752256	1.055346	0.23653304	0.6322346	0.90605112	-0.1288772	0.28079186	0.83295493	0.33197963
354	1.412	0.06504903	0.028211649	-0.05027727	0.76276804	0.039425105	0.15055701	0.043111427	0.16288921	-0.077050261	0.62409476	0.054052245	0.19709666	0.077236597	0.15566817	0.00054520492	0.63690251	0.078307253	0.11175306	-0.0030133017	0.2021048	-0.022103607	0.56975818	0.02937575	0.15680545	0.34538589	0.40003682	-0.10392501	0.63153351	0.45384487	0.20272225	0.36685104	0.3533524	0.0097715421	0.63211752	0.45779117	0.074922603	0.39847292	0.77189914	-0.12060177	0.49431842	0.84951812	0.25237282	0.47249258	0.88665189	-0.075587129	0.52951841	0.93471235	0.15834172	0.30101988	0.91185398	0.093544067	0.43492567	1.3714041	-0.1052362	0.40344421	1.364459	0.21844499	0.33465867	1.3961363	0.043244238	0.38582323	1.0258445	-0.14122167	0.25405101	1.0554259	0.23787075	0.63574916	0.90520311	-0.12816379	0.28874506	0.83317345	0.33316635
